<svg width="21" height="20" viewBox="0 0 21 20" fill="none" xmlns="http://www.w3.org/2000/svg">
<g clip-path="url(#clip0_1_27)">
<path d="M20.4265 18.1096L14.0172 11.7003C14.9108 10.4843 15.3961 9.01659 15.4037 7.50765C15.4086 6.06713 14.9856 4.6576 14.1884 3.45779C13.3911 2.25799 12.2555 1.32197 10.9256 0.768427C9.59567 0.214887 8.13131 0.0687638 6.71822 0.348589C5.30514 0.628415 4.00698 1.32158 2.98837 2.34019C1.96976 3.3588 1.27659 4.65696 0.996767 6.07004C0.716942 7.48313 0.863065 8.94749 1.41661 10.2774C1.97015 11.6074 2.90617 12.7429 4.10597 13.5402C5.30578 14.3374 6.71531 14.7604 8.15583 14.7555C9.67045 14.7515 11.1446 14.2659 12.3651 13.369L18.7744 19.7783L20.4265 18.1096ZM3.09979 7.50765C3.08828 6.50926 3.37361 5.52995 3.91957 4.69398C4.46553 3.85801 5.24752 3.20306 6.16631 2.81223C7.0851 2.42141 8.09928 2.31232 9.08017 2.49881C10.0611 2.68531 10.9644 3.15897 11.6757 3.85972C12.3869 4.56046 12.874 5.45669 13.0751 6.43469C13.2762 7.41269 13.1822 8.42839 12.8051 9.35289C12.428 10.2774 11.7847 11.069 10.957 11.6274C10.1292 12.1857 9.15428 12.4856 8.15583 12.489C6.82577 12.4956 5.54719 11.9753 4.59971 11.0418C3.65223 10.1084 3.11294 8.83767 3.09979 7.50765Z" fill="#575757"/>
</g>
<defs>
<clipPath id="clip0_1_27">
<rect width="19.56" height="19.56" fill="white" transform="translate(0.868179 0.220001)"/>
</clipPath>
</defs>
</svg>
